<svg xmlns="http://www.w3.org/2000/svg" version="1.1" xmlns:xlink="http://www.w3.org/1999/xlink" xmlns:svgjs="http://svgjs.dev/svgjs" width="1440" height="560" preserveAspectRatio="none" viewBox="0 0 1440 560">
    <g mask="url(&quot;#SvgjsMask1140&quot;)" fill="none">
        <rect width="1440" height="560" x="0" y="0" fill="rgba(7, 14, 29, 1)"></rect>
        <g mask="url(&quot;#SvgjsMask1141&quot;)">
            <path d="M715.5 40.5L742.5 40.5L769.5 13.5L1174.5 13.5L1228.5 67.5" stroke-width="4.5" stroke="rgba(27, 29, 39, 1)"></path>
            <path d="M708.75 40.5 a6.75 6.75 0 1 0 13.5 0 a6.75 6.75 0 1 0 -13.5 0zM1221.75 67.5 a6.75 6.75 0 1 0 13.5 0 a6.75 6.75 0 1 0 -13.5 0z" fill="rgba(27, 29, 39, 1)"></path>
            <path d="M1309.5 499.5L1255.5 499.5L1201.5 553.5L850.5 553.5L796.5 499.5" stroke-width="4.5" stroke="rgba(27, 29, 39, 1)"></path>
            <path d="M1302.75 499.5 a6.75 6.75 0 1 0 13.5 0 a6.75 6.75 0 1 0 -13.5 0zM789.75 499.5 a6.75 6.75 0 1 0 13.5 0 a6.75 6.75 0 1 0 -13.5 0z" fill="rgba(27, 29, 39, 1)"></path>
            <path d="M958.5 364.5L1120.5 526.5L1201.5 526.5L1444.5 283.5L1444.5 256.5" stroke-width="4.5" stroke="rgba(27, 29, 39, 1)"></path>
            <path d="M951.75 364.5 a6.75 6.75 0 1 0 13.5 0 a6.75 6.75 0 1 0 -13.5 0zM1437.75 256.5 a6.75 6.75 0 1 0 13.5 0 a6.75 6.75 0 1 0 -13.5 0z" fill="rgba(27, 29, 39, 1)"></path>
            <path d="M445.5 364.5L445.5 553.5" stroke-width="4.5" stroke="rgba(27, 29, 39, 1)"></path>
            <path d="M438.75 364.5 a6.75 6.75 0 1 0 13.5 0 a6.75 6.75 0 1 0 -13.5 0zM438.75 553.5 a6.75 6.75 0 1 0 13.5 0 a6.75 6.75 0 1 0 -13.5 0z" fill="rgba(27, 29, 39, 1)"></path>
            <path d="M661.5 310.5L148.5 310.5" stroke-width="4.5" stroke="rgba(27, 29, 39, 1)"></path>
            <path d="M654.75 310.5 a6.75 6.75 0 1 0 13.5 0 a6.75 6.75 0 1 0 -13.5 0zM141.75 310.5 a6.75 6.75 0 1 0 13.5 0 a6.75 6.75 0 1 0 -13.5 0z" fill="rgba(27, 29, 39, 1)"></path>
            <path d="M148.5 418.5L13.5 283.5L13.5 94.5L94.5 13.5L148.5 13.5L202.5 67.5" stroke-width="4.5" stroke="rgba(27, 29, 39, 1)"></path>
            <path d="M141.75 418.5 a6.75 6.75 0 1 0 13.5 0 a6.75 6.75 0 1 0 -13.5 0zM195.75 67.5 a6.75 6.75 0 1 0 13.5 0 a6.75 6.75 0 1 0 -13.5 0z" fill="rgba(27, 29, 39, 1)"></path>
            <path d="M1444.5 67.5L1255.5 67.5L1201.5 13.5" stroke-width="4.5" stroke="rgba(27, 29, 39, 1)"></path>
            <path d="M1437.75 67.5 a6.75 6.75 0 1 0 13.5 0 a6.75 6.75 0 1 0 -13.5 0zM1194.75 13.5 a6.75 6.75 0 1 0 13.5 0 a6.75 6.75 0 1 0 -13.5 0z" fill="rgba(27, 29, 39, 1)"></path>
            <path d="M1390.5 175.5L1444.5 121.5L1444.5 94.5" stroke-width="4.5" stroke="rgba(27, 29, 39, 1)"></path>
            <path d="M1383.75 175.5 a6.75 6.75 0 1 0 13.5 0 a6.75 6.75 0 1 0 -13.5 0zM1437.75 94.5 a6.75 6.75 0 1 0 13.5 0 a6.75 6.75 0 1 0 -13.5 0z" fill="rgba(27, 29, 39, 1)"></path>
            <path d="M229.5 445.5L229.5 553.5" stroke-width="4.5" stroke="rgba(27, 29, 39, 1)"></path>
            <path d="M222.75 445.5 a6.75 6.75 0 1 0 13.5 0 a6.75 6.75 0 1 0 -13.5 0zM222.75 553.5 a6.75 6.75 0 1 0 13.5 0 a6.75 6.75 0 1 0 -13.5 0z" fill="rgba(27, 29, 39, 1)"></path>
            <path d="M1039.5 364.5L985.5 310.5L850.5 310.5L661.5 121.5L553.5 121.5L526.5 94.5" stroke-width="4.5" stroke="rgba(27, 29, 39, 1)"></path>
            <path d="M1032.75 364.5 a6.75 6.75 0 1 0 13.5 0 a6.75 6.75 0 1 0 -13.5 0zM519.75 94.5 a6.75 6.75 0 1 0 13.5 0 a6.75 6.75 0 1 0 -13.5 0z" fill="rgba(27, 29, 39, 1)"></path>
            <path d="M661.5 94.5L661.5 13.5" stroke-width="4.5" stroke="rgba(27, 29, 39, 1)"></path>
            <path d="M654.75 94.5 a6.75 6.75 0 1 0 13.5 0 a6.75 6.75 0 1 0 -13.5 0zM654.75 13.5 a6.75 6.75 0 1 0 13.5 0 a6.75 6.75 0 1 0 -13.5 0z" fill="rgba(27, 29, 39, 1)"></path>
            <path d="M121.5 148.5L121.5 40.5" stroke-width="4.5" stroke="rgba(27, 29, 39, 1)"></path>
            <path d="M114.75 148.5 a6.75 6.75 0 1 0 13.5 0 a6.75 6.75 0 1 0 -13.5 0zM114.75 40.5 a6.75 6.75 0 1 0 13.5 0 a6.75 6.75 0 1 0 -13.5 0z" fill="rgba(27, 29, 39, 1)"></path>
            <path d="M580.5 445.5L580.5 526.5L553.5 553.5L472.5 553.5" stroke-width="4.5" stroke="rgba(27, 29, 39, 1)"></path>
            <path d="M573.75 445.5 a6.75 6.75 0 1 0 13.5 0 a6.75 6.75 0 1 0 -13.5 0zM465.75 553.5 a6.75 6.75 0 1 0 13.5 0 a6.75 6.75 0 1 0 -13.5 0z" fill="rgba(27, 29, 39, 1)"></path>
            <path d="M877.5 121.5L877.5 283.5" stroke-width="4.5" stroke="rgba(27, 29, 39, 1)"></path>
            <path d="M870.75 121.5 a6.75 6.75 0 1 0 13.5 0 a6.75 6.75 0 1 0 -13.5 0zM870.75 283.5 a6.75 6.75 0 1 0 13.5 0 a6.75 6.75 0 1 0 -13.5 0z" fill="rgba(27, 29, 39, 1)"></path>
            <path d="M337.5 526.5L94.5 283.5L40.5 283.5" stroke-width="4.5" stroke="rgba(27, 29, 39, 1)"></path>
            <path d="M330.75 526.5 a6.75 6.75 0 1 0 13.5 0 a6.75 6.75 0 1 0 -13.5 0zM33.75 283.5 a6.75 6.75 0 1 0 13.5 0 a6.75 6.75 0 1 0 -13.5 0z" fill="rgba(27, 29, 39, 1)"></path>
            <path d="M148.5 256.5L40.5 256.5" stroke-width="4.5" stroke="rgba(27, 29, 39, 1)"></path>
            <path d="M141.75 256.5 a6.75 6.75 0 1 0 13.5 0 a6.75 6.75 0 1 0 -13.5 0zM33.75 256.5 a6.75 6.75 0 1 0 13.5 0 a6.75 6.75 0 1 0 -13.5 0z" fill="rgba(27, 29, 39, 1)"></path>
            <path d="M1120.5 121.5L1093.5 148.5L904.5 148.5" stroke-width="4.5" stroke="rgba(27, 29, 39, 1)"></path>
            <path d="M1113.75 121.5 a6.75 6.75 0 1 0 13.5 0 a6.75 6.75 0 1 0 -13.5 0zM897.75 148.5 a6.75 6.75 0 1 0 13.5 0 a6.75 6.75 0 1 0 -13.5 0z" fill="rgba(27, 29, 39, 1)"></path>
            <path d="M364.5 418.5L418.5 418.5" stroke-width="4.5" stroke="rgba(27, 29, 39, 1)"></path>
            <path d="M357.75 418.5 a6.75 6.75 0 1 0 13.5 0 a6.75 6.75 0 1 0 -13.5 0zM411.75 418.5 a6.75 6.75 0 1 0 13.5 0 a6.75 6.75 0 1 0 -13.5 0z" fill="rgba(27, 29, 39, 1)"></path>
            <path d="M1228.5 553.5L1444.5 553.5" stroke-width="4.5" stroke="rgba(27, 29, 39, 1)"></path>
            <path d="M1221.75 553.5 a6.75 6.75 0 1 0 13.5 0 a6.75 6.75 0 1 0 -13.5 0zM1437.75 553.5 a6.75 6.75 0 1 0 13.5 0 a6.75 6.75 0 1 0 -13.5 0z" fill="rgba(27, 29, 39, 1)"></path>
            <path d="M472.5 202.5L499.5 229.5L553.5 229.5L634.5 148.5L661.5 148.5L985.5 472.5" stroke-width="4.5" stroke="rgba(27, 29, 39, 1)"></path>
            <path d="M465.75 202.5 a6.75 6.75 0 1 0 13.5 0 a6.75 6.75 0 1 0 -13.5 0zM978.75 472.5 a6.75 6.75 0 1 0 13.5 0 a6.75 6.75 0 1 0 -13.5 0z" fill="rgba(27, 29, 39, 1)"></path>
            <path d="M958.5 499.5L958.5 472.5L661.5 175.5L634.5 175.5L526.5 283.5L472.5 283.5" stroke-width="4.5" stroke="rgba(27, 29, 39, 1)"></path>
            <path d="M951.75 499.5 a6.75 6.75 0 1 0 13.5 0 a6.75 6.75 0 1 0 -13.5 0zM465.75 283.5 a6.75 6.75 0 1 0 13.5 0 a6.75 6.75 0 1 0 -13.5 0z" fill="rgba(27, 29, 39, 1)"></path>
            <path d="M931.5 499.5L958.5 526.5L1093.5 526.5" stroke-width="4.5" stroke="rgba(27, 29, 39, 1)"></path>
            <path d="M924.75 499.5 a6.75 6.75 0 1 0 13.5 0 a6.75 6.75 0 1 0 -13.5 0zM1086.75 526.5 a6.75 6.75 0 1 0 13.5 0 a6.75 6.75 0 1 0 -13.5 0z" fill="rgba(27, 29, 39, 1)"></path>
            <path d="M904.5 472.5L607.5 472.5" stroke-width="4.5" stroke="rgba(27, 29, 39, 1)"></path>
            <path d="M897.75 472.5 a6.75 6.75 0 1 0 13.5 0 a6.75 6.75 0 1 0 -13.5 0zM600.75 472.5 a6.75 6.75 0 1 0 13.5 0 a6.75 6.75 0 1 0 -13.5 0z" fill="rgba(27, 29, 39, 1)"></path>
            <path d="M13.5 445.5L67.5 391.5L94.5 391.5L148.5 445.5L148.5 553.5" stroke-width="4.5" stroke="rgba(27, 29, 39, 1)"></path>
            <path d="M6.75 445.5 a6.75 6.75 0 1 0 13.5 0 a6.75 6.75 0 1 0 -13.5 0zM141.75 553.5 a6.75 6.75 0 1 0 13.5 0 a6.75 6.75 0 1 0 -13.5 0z" fill="rgba(27, 29, 39, 1)"></path>
            <path d="M40.5 526.5L67.5 553.5L121.5 553.5" stroke-width="4.5" stroke="rgba(27, 29, 39, 1)"></path>
            <path d="M33.75 526.5 a6.75 6.75 0 1 0 13.5 0 a6.75 6.75 0 1 0 -13.5 0zM114.75 553.5 a6.75 6.75 0 1 0 13.5 0 a6.75 6.75 0 1 0 -13.5 0z" fill="rgba(27, 29, 39, 1)"></path>
            <path d="M310.5 472.5L175.5 337.5" stroke-width="4.5" stroke="rgba(27, 29, 39, 1)"></path>
            <path d="M303.75 472.5 a6.75 6.75 0 1 0 13.5 0 a6.75 6.75 0 1 0 -13.5 0zM168.75 337.5 a6.75 6.75 0 1 0 13.5 0 a6.75 6.75 0 1 0 -13.5 0z" fill="rgba(27, 29, 39, 1)"></path>
            <path d="M337.5 256.5L310.5 283.5L121.5 283.5" stroke-width="4.5" stroke="rgba(27, 29, 39, 1)"></path>
            <path d="M330.75 256.5 a6.75 6.75 0 1 0 13.5 0 a6.75 6.75 0 1 0 -13.5 0zM114.75 283.5 a6.75 6.75 0 1 0 13.5 0 a6.75 6.75 0 1 0 -13.5 0z" fill="rgba(27, 29, 39, 1)"></path>
            <path d="M688.5 337.5L202.5 337.5" stroke-width="4.5" stroke="rgba(27, 29, 39, 1)"></path>
            <path d="M681.75 337.5 a6.75 6.75 0 1 0 13.5 0 a6.75 6.75 0 1 0 -13.5 0zM195.75 337.5 a6.75 6.75 0 1 0 13.5 0 a6.75 6.75 0 1 0 -13.5 0z" fill="rgba(27, 29, 39, 1)"></path>
            <path d="M148.5 364.5L148.5 391.5L202.5 445.5L202.5 499.5L175.5 526.5L175.5 553.5" stroke-width="4.5" stroke="rgba(27, 29, 39, 1)"></path>
            <path d="M141.75 364.5 a6.75 6.75 0 1 0 13.5 0 a6.75 6.75 0 1 0 -13.5 0zM168.75 553.5 a6.75 6.75 0 1 0 13.5 0 a6.75 6.75 0 1 0 -13.5 0z" fill="rgba(27, 29, 39, 1)"></path>
            <path d="M229.5 175.5L67.5 175.5L40.5 202.5L40.5 229.5" stroke-width="4.5" stroke="rgba(27, 29, 39, 1)"></path>
            <path d="M222.75 175.5 a6.75 6.75 0 1 0 13.5 0 a6.75 6.75 0 1 0 -13.5 0zM33.75 229.5 a6.75 6.75 0 1 0 13.5 0 a6.75 6.75 0 1 0 -13.5 0z" fill="rgba(27, 29, 39, 1)"></path>
            <path d="M742.5 148.5L742.5 67.5L769.5 40.5L796.5 40.5L850.5 94.5L850.5 229.5L823.5 256.5" stroke-width="4.5" stroke="rgba(27, 29, 39, 1)"></path>
            <path d="M735.75 148.5 a6.75 6.75 0 1 0 13.5 0 a6.75 6.75 0 1 0 -13.5 0zM816.75 256.5 a6.75 6.75 0 1 0 13.5 0 a6.75 6.75 0 1 0 -13.5 0z" fill="rgba(27, 29, 39, 1)"></path>
            <path d="M526.5 445.5L472.5 445.5" stroke-width="4.5" stroke="rgba(27, 29, 39, 1)"></path>
            <path d="M519.75 445.5 a6.75 6.75 0 1 0 13.5 0 a6.75 6.75 0 1 0 -13.5 0zM465.75 445.5 a6.75 6.75 0 1 0 13.5 0 a6.75 6.75 0 1 0 -13.5 0z" fill="rgba(27, 29, 39, 1)"></path>
            <path d="M229.5 121.5L148.5 40.5" stroke-width="4.5" stroke="rgba(27, 29, 39, 1)"></path>
            <path d="M222.75 121.5 a6.75 6.75 0 1 0 13.5 0 a6.75 6.75 0 1 0 -13.5 0zM141.75 40.5 a6.75 6.75 0 1 0 13.5 0 a6.75 6.75 0 1 0 -13.5 0z" fill="rgba(27, 29, 39, 1)"></path>
            <path d="M1147.5 202.5L1120.5 202.5L1066.5 256.5L1066.5 445.5L1120.5 499.5L1201.5 499.5L1309.5 391.5" stroke-width="4.5" stroke="rgba(27, 29, 39, 1)"></path>
            <path d="M1140.75 202.5 a6.75 6.75 0 1 0 13.5 0 a6.75 6.75 0 1 0 -13.5 0zM1302.75 391.5 a6.75 6.75 0 1 0 13.5 0 a6.75 6.75 0 1 0 -13.5 0z" fill="rgba(27, 29, 39, 1)"></path>
            <path d="M1147.5 472.5L1120.5 472.5L1093.5 445.5L1093.5 256.5L1120.5 229.5L1309.5 229.5L1363.5 175.5" stroke-width="4.5" stroke="rgba(27, 29, 39, 1)"></path>
            <path d="M1140.75 472.5 a6.75 6.75 0 1 0 13.5 0 a6.75 6.75 0 1 0 -13.5 0zM1356.75 175.5 a6.75 6.75 0 1 0 13.5 0 a6.75 6.75 0 1 0 -13.5 0z" fill="rgba(27, 29, 39, 1)"></path>
            <path d="M1417.5 175.5L1444.5 202.5L1444.5 229.5L1228.5 445.5L1120.5 445.5" stroke-width="4.5" stroke="rgba(27, 29, 39, 1)"></path>
            <path d="M1410.75 175.5 a6.75 6.75 0 1 0 13.5 0 a6.75 6.75 0 1 0 -13.5 0zM1113.75 445.5 a6.75 6.75 0 1 0 13.5 0 a6.75 6.75 0 1 0 -13.5 0z" fill="rgba(27, 29, 39, 1)"></path>
            <path d="M445.5 148.5L499.5 202.5L553.5 202.5L580.5 175.5L580.5 148.5" stroke-width="4.5" stroke="rgba(27, 29, 39, 1)"></path>
            <path d="M438.75 148.5 a6.75 6.75 0 1 0 13.5 0 a6.75 6.75 0 1 0 -13.5 0zM573.75 148.5 a6.75 6.75 0 1 0 13.5 0 a6.75 6.75 0 1 0 -13.5 0z" fill="rgba(27, 29, 39, 1)"></path>
            <path d="M445.5 202.5L283.5 202.5L229.5 256.5L175.5 256.5L121.5 202.5L67.5 202.5" stroke-width="4.5" stroke="rgba(27, 29, 39, 1)"></path>
            <path d="M438.75 202.5 a6.75 6.75 0 1 0 13.5 0 a6.75 6.75 0 1 0 -13.5 0zM60.75 202.5 a6.75 6.75 0 1 0 13.5 0 a6.75 6.75 0 1 0 -13.5 0z" fill="rgba(27, 29, 39, 1)"></path>
            <path d="M13.5 40.5L40.5 40.5L67.5 13.5" stroke-width="4.5" stroke="rgba(27, 29, 39, 1)"></path>
            <path d="M6.75 40.5 a6.75 6.75 0 1 0 13.5 0 a6.75 6.75 0 1 0 -13.5 0zM60.75 13.5 a6.75 6.75 0 1 0 13.5 0 a6.75 6.75 0 1 0 -13.5 0z" fill="rgba(27, 29, 39, 1)"></path>
            <path d="M418.5 175.5L283.5 40.5L283.5 13.5" stroke-width="4.5" stroke="rgba(27, 29, 39, 1)"></path>
            <path d="M411.75 175.5 a6.75 6.75 0 1 0 13.5 0 a6.75 6.75 0 1 0 -13.5 0zM276.75 13.5 a6.75 6.75 0 1 0 13.5 0 a6.75 6.75 0 1 0 -13.5 0z" fill="rgba(27, 29, 39, 1)"></path>
            <path d="M769.5 148.5L769.5 67.5" stroke-width="4.5" stroke="rgba(27, 29, 39, 1)"></path>
            <path d="M762.75 148.5 a6.75 6.75 0 1 0 13.5 0 a6.75 6.75 0 1 0 -13.5 0zM762.75 67.5 a6.75 6.75 0 1 0 13.5 0 a6.75 6.75 0 1 0 -13.5 0z" fill="rgba(27, 29, 39, 1)"></path>
            <path d="M1444.5 418.5L1390.5 364.5" stroke-width="4.5" stroke="rgba(27, 29, 39, 1)"></path>
            <path d="M1437.75 418.5 a6.75 6.75 0 1 0 13.5 0 a6.75 6.75 0 1 0 -13.5 0zM1383.75 364.5 a6.75 6.75 0 1 0 13.5 0 a6.75 6.75 0 1 0 -13.5 0z" fill="rgba(27, 29, 39, 1)"></path>
            <path d="M715.5 310.5L688.5 310.5L607.5 229.5" stroke-width="4.5" stroke="rgba(27, 29, 39, 1)"></path>
            <path d="M708.75 310.5 a6.75 6.75 0 1 0 13.5 0 a6.75 6.75 0 1 0 -13.5 0zM600.75 229.5 a6.75 6.75 0 1 0 13.5 0 a6.75 6.75 0 1 0 -13.5 0z" fill="rgba(27, 29, 39, 1)"></path>
            <path d="M796.5 391.5L472.5 391.5" stroke-width="4.5" stroke="rgba(27, 29, 39, 1)"></path>
            <path d="M789.75 391.5 a6.75 6.75 0 1 0 13.5 0 a6.75 6.75 0 1 0 -13.5 0zM465.75 391.5 a6.75 6.75 0 1 0 13.5 0 a6.75 6.75 0 1 0 -13.5 0z" fill="rgba(27, 29, 39, 1)"></path>
            <path d="M877.5 418.5L850.5 445.5L607.5 445.5L580.5 418.5L472.5 418.5" stroke-width="4.5" stroke="rgba(27, 29, 39, 1)"></path>
            <path d="M870.75 418.5 a6.75 6.75 0 1 0 13.5 0 a6.75 6.75 0 1 0 -13.5 0zM465.75 418.5 a6.75 6.75 0 1 0 13.5 0 a6.75 6.75 0 1 0 -13.5 0z" fill="rgba(27, 29, 39, 1)"></path>
            <path d="M931.5 256.5L1012.5 175.5L1282.5 175.5L1363.5 94.5L1417.5 94.5" stroke-width="4.5" stroke="rgba(27, 29, 39, 1)"></path>
            <path d="M924.75 256.5 a6.75 6.75 0 1 0 13.5 0 a6.75 6.75 0 1 0 -13.5 0zM1410.75 94.5 a6.75 6.75 0 1 0 13.5 0 a6.75 6.75 0 1 0 -13.5 0z" fill="rgba(27, 29, 39, 1)"></path>
            <path d="M958.5 256.5L931.5 283.5L904.5 283.5" stroke-width="4.5" stroke="rgba(27, 29, 39, 1)"></path>
            <path d="M951.75 256.5 a6.75 6.75 0 1 0 13.5 0 a6.75 6.75 0 1 0 -13.5 0zM897.75 283.5 a6.75 6.75 0 1 0 13.5 0 a6.75 6.75 0 1 0 -13.5 0z" fill="rgba(27, 29, 39, 1)"></path>
            <path d="M1012.5 40.5L904.5 40.5" stroke-width="4.5" stroke="rgba(27, 29, 39, 1)"></path>
            <path d="M1005.75 40.5 a6.75 6.75 0 1 0 13.5 0 a6.75 6.75 0 1 0 -13.5 0zM897.75 40.5 a6.75 6.75 0 1 0 13.5 0 a6.75 6.75 0 1 0 -13.5 0z" fill="rgba(27, 29, 39, 1)"></path>
            <path d="M796.5 94.5L796.5 148.5L823.5 175.5L823.5 229.5" stroke-width="4.5" stroke="rgba(27, 29, 39, 1)"></path>
            <path d="M789.75 94.5 a6.75 6.75 0 1 0 13.5 0 a6.75 6.75 0 1 0 -13.5 0zM816.75 229.5 a6.75 6.75 0 1 0 13.5 0 a6.75 6.75 0 1 0 -13.5 0z" fill="rgba(27, 29, 39, 1)"></path>
            <path d="M661.5 364.5L769.5 364.5L796.5 337.5" stroke-width="4.5" stroke="rgba(27, 29, 39, 1)"></path>
            <path d="M654.75 364.5 a6.75 6.75 0 1 0 13.5 0 a6.75 6.75 0 1 0 -13.5 0zM789.75 337.5 a6.75 6.75 0 1 0 13.5 0 a6.75 6.75 0 1 0 -13.5 0z" fill="rgba(27, 29, 39, 1)"></path>
            <path d="M769.5 499.5L823.5 553.5" stroke-width="4.5" stroke="rgba(27, 29, 39, 1)"></path>
            <path d="M762.75 499.5 a6.75 6.75 0 1 0 13.5 0 a6.75 6.75 0 1 0 -13.5 0zM816.75 553.5 a6.75 6.75 0 1 0 13.5 0 a6.75 6.75 0 1 0 -13.5 0z" fill="rgba(27, 29, 39, 1)"></path>
            <path d="M472.5 526.5L553.5 526.5" stroke-width="4.5" stroke="rgba(27, 29, 39, 1)"></path>
            <path d="M465.75 526.5 a6.75 6.75 0 1 0 13.5 0 a6.75 6.75 0 1 0 -13.5 0zM546.75 526.5 a6.75 6.75 0 1 0 13.5 0 a6.75 6.75 0 1 0 -13.5 0z" fill="rgba(27, 29, 39, 1)"></path>
            <path d="M310.5 391.5L283.5 364.5L229.5 364.5" stroke-width="4.5" stroke="rgba(27, 29, 39, 1)"></path>
            <path d="M303.75 391.5 a6.75 6.75 0 1 0 13.5 0 a6.75 6.75 0 1 0 -13.5 0zM222.75 364.5 a6.75 6.75 0 1 0 13.5 0 a6.75 6.75 0 1 0 -13.5 0z" fill="rgba(27, 29, 39, 1)"></path>
            <path d="M688.5 553.5L742.5 499.5" stroke-width="4.5" stroke="rgba(27, 29, 39, 1)"></path>
            <path d="M681.75 553.5 a6.75 6.75 0 1 0 13.5 0 a6.75 6.75 0 1 0 -13.5 0zM735.75 499.5 a6.75 6.75 0 1 0 13.5 0 a6.75 6.75 0 1 0 -13.5 0z" fill="rgba(27, 29, 39, 1)"></path>
            <path d="M607.5 553.5L607.5 499.5" stroke-width="4.5" stroke="rgba(27, 29, 39, 1)"></path>
            <path d="M600.75 553.5 a6.75 6.75 0 1 0 13.5 0 a6.75 6.75 0 1 0 -13.5 0zM600.75 499.5 a6.75 6.75 0 1 0 13.5 0 a6.75 6.75 0 1 0 -13.5 0z" fill="rgba(27, 29, 39, 1)"></path>
            <path d="M67.5 67.5L94.5 94.5L94.5 148.5" stroke-width="4.5" stroke="rgba(27, 29, 39, 1)"></path>
            <path d="M60.75 67.5 a6.75 6.75 0 1 0 13.5 0 a6.75 6.75 0 1 0 -13.5 0zM87.75 148.5 a6.75 6.75 0 1 0 13.5 0 a6.75 6.75 0 1 0 -13.5 0z" fill="rgba(27, 29, 39, 1)"></path>
            <path d="M283.5 148.5L229.5 94.5L229.5 13.5" stroke-width="4.5" stroke="rgba(27, 29, 39, 1)"></path>
            <path d="M276.75 148.5 a6.75 6.75 0 1 0 13.5 0 a6.75 6.75 0 1 0 -13.5 0zM222.75 13.5 a6.75 6.75 0 1 0 13.5 0 a6.75 6.75 0 1 0 -13.5 0z" fill="rgba(27, 29, 39, 1)"></path>
            <path d="M1147.5 283.5L1201.5 283.5L1228.5 256.5L1336.5 256.5L1390.5 202.5L1417.5 202.5" stroke-width="4.5" stroke="rgba(27, 29, 39, 1)"></path>
            <path d="M1140.75 283.5 a6.75 6.75 0 1 0 13.5 0 a6.75 6.75 0 1 0 -13.5 0zM1410.75 202.5 a6.75 6.75 0 1 0 13.5 0 a6.75 6.75 0 1 0 -13.5 0z" fill="rgba(27, 29, 39, 1)"></path>
            <path d="M229.5 229.5L202.5 202.5L148.5 202.5" stroke-width="4.5" stroke="rgba(27, 29, 39, 1)"></path>
            <path d="M222.75 229.5 a6.75 6.75 0 1 0 13.5 0 a6.75 6.75 0 1 0 -13.5 0zM141.75 202.5 a6.75 6.75 0 1 0 13.5 0 a6.75 6.75 0 1 0 -13.5 0z" fill="rgba(27, 29, 39, 1)"></path>
            <path d="M553.5 67.5L499.5 13.5" stroke-width="4.5" stroke="rgba(27, 29, 39, 1)"></path>
            <path d="M546.75 67.5 a6.75 6.75 0 1 0 13.5 0 a6.75 6.75 0 1 0 -13.5 0zM492.75 13.5 a6.75 6.75 0 1 0 13.5 0 a6.75 6.75 0 1 0 -13.5 0z" fill="rgba(27, 29, 39, 1)"></path>
            <path d="M904.5 256.5L904.5 175.5" stroke-width="4.5" stroke="rgba(27, 29, 39, 1)"></path>
            <path d="M897.75 256.5 a6.75 6.75 0 1 0 13.5 0 a6.75 6.75 0 1 0 -13.5 0zM897.75 175.5 a6.75 6.75 0 1 0 13.5 0 a6.75 6.75 0 1 0 -13.5 0z" fill="rgba(27, 29, 39, 1)"></path>
            <path d="M175.5 121.5L202.5 121.5L256.5 175.5L391.5 175.5" stroke-width="4.5" stroke="rgba(27, 29, 39, 1)"></path>
            <path d="M168.75 121.5 a6.75 6.75 0 1 0 13.5 0 a6.75 6.75 0 1 0 -13.5 0zM384.75 175.5 a6.75 6.75 0 1 0 13.5 0 a6.75 6.75 0 1 0 -13.5 0z" fill="rgba(27, 29, 39, 1)"></path>
            <path d="M1255.5 148.5L1120.5 148.5" stroke-width="4.5" stroke="rgba(27, 29, 39, 1)"></path>
            <path d="M1248.75 148.5 a6.75 6.75 0 1 0 13.5 0 a6.75 6.75 0 1 0 -13.5 0zM1113.75 148.5 a6.75 6.75 0 1 0 13.5 0 a6.75 6.75 0 1 0 -13.5 0z" fill="rgba(27, 29, 39, 1)"></path>
            <path d="M1012.5 121.5L1093.5 40.5L1174.5 40.5L1282.5 148.5" stroke-width="4.5" stroke="rgba(27, 29, 39, 1)"></path>
            <path d="M1005.75 121.5 a6.75 6.75 0 1 0 13.5 0 a6.75 6.75 0 1 0 -13.5 0zM1275.75 148.5 a6.75 6.75 0 1 0 13.5 0 a6.75 6.75 0 1 0 -13.5 0z" fill="rgba(27, 29, 39, 1)"></path>
            <path d="M1336.5 526.5L1336.5 418.5L1363.5 391.5L1390.5 391.5L1444.5 445.5L1444.5 526.5" stroke-width="4.5" stroke="rgba(27, 29, 39, 1)"></path>
            <path d="M1329.75 526.5 a6.75 6.75 0 1 0 13.5 0 a6.75 6.75 0 1 0 -13.5 0zM1437.75 526.5 a6.75 6.75 0 1 0 13.5 0 a6.75 6.75 0 1 0 -13.5 0z" fill="rgba(27, 29, 39, 1)"></path>
            <path d="M1282.5 310.5L1255.5 283.5L1228.5 283.5L1120.5 391.5L1120.5 418.5" stroke-width="4.5" stroke="rgba(27, 29, 39, 1)"></path>
            <path d="M1275.75 310.5 a6.75 6.75 0 1 0 13.5 0 a6.75 6.75 0 1 0 -13.5 0zM1113.75 418.5 a6.75 6.75 0 1 0 13.5 0 a6.75 6.75 0 1 0 -13.5 0z" fill="rgba(27, 29, 39, 1)"></path>
            <path d="M1255.5 40.5L1282.5 13.5L1444.5 13.5" stroke-width="4.5" stroke="rgba(27, 29, 39, 1)"></path>
            <path d="M1248.75 40.5 a6.75 6.75 0 1 0 13.5 0 a6.75 6.75 0 1 0 -13.5 0zM1437.75 13.5 a6.75 6.75 0 1 0 13.5 0 a6.75 6.75 0 1 0 -13.5 0z" fill="rgba(27, 29, 39, 1)"></path>
            <path d="M445.5 283.5L472.5 256.5L472.5 229.5" stroke-width="4.5" stroke="rgba(27, 29, 39, 1)"></path>
            <path d="M438.75 283.5 a6.75 6.75 0 1 0 13.5 0 a6.75 6.75 0 1 0 -13.5 0zM465.75 229.5 a6.75 6.75 0 1 0 13.5 0 a6.75 6.75 0 1 0 -13.5 0z" fill="rgba(27, 29, 39, 1)"></path>
            <path d="M1039.5 310.5L985.5 256.5L985.5 229.5L1012.5 202.5L1039.5 202.5L1066.5 229.5" stroke-width="4.5" stroke="rgba(27, 29, 39, 1)"></path>
            <path d="M1032.75 310.5 a6.75 6.75 0 1 0 13.5 0 a6.75 6.75 0 1 0 -13.5 0zM1059.75 229.5 a6.75 6.75 0 1 0 13.5 0 a6.75 6.75 0 1 0 -13.5 0z" fill="rgba(27, 29, 39, 1)"></path>
            <path d="M1417.5 229.5L1363.5 283.5L1282.5 283.5" stroke-width="4.5" stroke="rgba(27, 29, 39, 1)"></path>
            <path d="M1410.75 229.5 a6.75 6.75 0 1 0 13.5 0 a6.75 6.75 0 1 0 -13.5 0zM1275.75 283.5 a6.75 6.75 0 1 0 13.5 0 a6.75 6.75 0 1 0 -13.5 0z" fill="rgba(27, 29, 39, 1)"></path>
            <path d="M715.5 67.5L688.5 94.5L688.5 121.5L715.5 148.5" stroke-width="4.5" stroke="rgba(27, 29, 39, 1)"></path>
            <path d="M708.75 67.5 a6.75 6.75 0 1 0 13.5 0 a6.75 6.75 0 1 0 -13.5 0zM708.75 148.5 a6.75 6.75 0 1 0 13.5 0 a6.75 6.75 0 1 0 -13.5 0z" fill="rgba(27, 29, 39, 1)"></path>
            <path d="M67.5 418.5L94.5 418.5L121.5 445.5L121.5 526.5" stroke-width="4.5" stroke="rgba(27, 29, 39, 1)"></path>
            <path d="M60.75 418.5 a6.75 6.75 0 1 0 13.5 0 a6.75 6.75 0 1 0 -13.5 0zM114.75 526.5 a6.75 6.75 0 1 0 13.5 0 a6.75 6.75 0 1 0 -13.5 0z" fill="rgba(27, 29, 39, 1)"></path>
            <path d="M1444.5 310.5L1444.5 391.5" stroke-width="4.5" stroke="rgba(27, 29, 39, 1)"></path>
            <path d="M1437.75 310.5 a6.75 6.75 0 1 0 13.5 0 a6.75 6.75 0 1 0 -13.5 0zM1437.75 391.5 a6.75 6.75 0 1 0 13.5 0 a6.75 6.75 0 1 0 -13.5 0z" fill="rgba(27, 29, 39, 1)"></path>
            <path d="M1039.5 472.5L1012.5 499.5L985.5 499.5" stroke-width="4.5" stroke="rgba(27, 29, 39, 1)"></path>
            <path d="M1032.75 472.5 a6.75 6.75 0 1 0 13.5 0 a6.75 6.75 0 1 0 -13.5 0zM978.75 499.5 a6.75 6.75 0 1 0 13.5 0 a6.75 6.75 0 1 0 -13.5 0z" fill="rgba(27, 29, 39, 1)"></path>
            <path d="M1174.5 94.5L1201.5 94.5L1228.5 121.5" stroke-width="4.5" stroke="rgba(27, 29, 39, 1)"></path>
            <path d="M1167.75 94.5 a6.75 6.75 0 1 0 13.5 0 a6.75 6.75 0 1 0 -13.5 0zM1221.75 121.5 a6.75 6.75 0 1 0 13.5 0 a6.75 6.75 0 1 0 -13.5 0z" fill="rgba(27, 29, 39, 1)"></path>
            <path d="M1363.5 121.5L1417.5 121.5" stroke-width="4.5" stroke="rgba(27, 29, 39, 1)"></path>
            <path d="M1356.75 121.5 a6.75 6.75 0 1 0 13.5 0 a6.75 6.75 0 1 0 -13.5 0zM1410.75 121.5 a6.75 6.75 0 1 0 13.5 0 a6.75 6.75 0 1 0 -13.5 0z" fill="rgba(27, 29, 39, 1)"></path>
            <path d="M1174.5 310.5L1120.5 364.5" stroke-width="4.5" stroke="rgba(27, 29, 39, 1)"></path>
            <path d="M1167.75 310.5 a6.75 6.75 0 1 0 13.5 0 a6.75 6.75 0 1 0 -13.5 0zM1113.75 364.5 a6.75 6.75 0 1 0 13.5 0 a6.75 6.75 0 1 0 -13.5 0z" fill="rgba(27, 29, 39, 1)"></path>
            <path d="M742.5 418.5L661.5 418.5" stroke-width="4.5" stroke="rgba(27, 29, 39, 1)"></path>
            <path d="M735.75 418.5 a6.75 6.75 0 1 0 13.5 0 a6.75 6.75 0 1 0 -13.5 0zM654.75 418.5 a6.75 6.75 0 1 0 13.5 0 a6.75 6.75 0 1 0 -13.5 0z" fill="rgba(27, 29, 39, 1)"></path>
            <path d="M1228.5 310.5L1255.5 310.5L1282.5 337.5L1309.5 337.5L1336.5 310.5" stroke-width="4.5" stroke="rgba(27, 29, 39, 1)"></path>
            <path d="M1221.75 310.5 a6.75 6.75 0 1 0 13.5 0 a6.75 6.75 0 1 0 -13.5 0zM1329.75 310.5 a6.75 6.75 0 1 0 13.5 0 a6.75 6.75 0 1 0 -13.5 0z" fill="rgba(27, 29, 39, 1)"></path>
            <path d="M553.5 364.5L472.5 364.5" stroke-width="4.5" stroke="rgba(27, 29, 39, 1)"></path>
            <path d="M546.75 364.5 a6.75 6.75 0 1 0 13.5 0 a6.75 6.75 0 1 0 -13.5 0zM465.75 364.5 a6.75 6.75 0 1 0 13.5 0 a6.75 6.75 0 1 0 -13.5 0z" fill="rgba(27, 29, 39, 1)"></path>
            <path d="M364.5 229.5L310.5 229.5L283.5 256.5L256.5 256.5" stroke-width="4.5" stroke="rgba(27, 29, 39, 1)"></path>
            <path d="M357.75 229.5 a6.75 6.75 0 1 0 13.5 0 a6.75 6.75 0 1 0 -13.5 0zM249.75 256.5 a6.75 6.75 0 1 0 13.5 0 a6.75 6.75 0 1 0 -13.5 0z" fill="rgba(27, 29, 39, 1)"></path>
            <path d="M13.5 553.5L13.5 499.5" stroke-width="4.5" stroke="rgba(27, 29, 39, 1)"></path>
            <path d="M6.75 553.5 a6.75 6.75 0 1 0 13.5 0 a6.75 6.75 0 1 0 -13.5 0zM6.75 499.5 a6.75 6.75 0 1 0 13.5 0 a6.75 6.75 0 1 0 -13.5 0z" fill="rgba(27, 29, 39, 1)"></path>
            <path d="M1255.5 364.5L1174.5 364.5L1147.5 391.5L1147.5 418.5" stroke-width="4.5" stroke="rgba(27, 29, 39, 1)"></path>
            <path d="M1248.75 364.5 a6.75 6.75 0 1 0 13.5 0 a6.75 6.75 0 1 0 -13.5 0zM1140.75 418.5 a6.75 6.75 0 1 0 13.5 0 a6.75 6.75 0 1 0 -13.5 0z" fill="rgba(27, 29, 39, 1)"></path>
            <path d="M526.5 148.5L472.5 148.5L418.5 94.5L364.5 94.5L310.5 40.5L310.5 13.5" stroke-width="4.5" stroke="rgba(27, 29, 39, 1)"></path>
            <path d="M519.75 148.5 a6.75 6.75 0 1 0 13.5 0 a6.75 6.75 0 1 0 -13.5 0zM303.75 13.5 a6.75 6.75 0 1 0 13.5 0 a6.75 6.75 0 1 0 -13.5 0z" fill="rgba(27, 29, 39, 1)"></path>
            <path d="M337.5 553.5L418.5 553.5" stroke-width="4.5" stroke="rgba(27, 29, 39, 1)"></path>
            <path d="M330.75 553.5 a6.75 6.75 0 1 0 13.5 0 a6.75 6.75 0 1 0 -13.5 0zM411.75 553.5 a6.75 6.75 0 1 0 13.5 0 a6.75 6.75 0 1 0 -13.5 0z" fill="rgba(27, 29, 39, 1)"></path>
            <path d="M1417.5 472.5L1417.5 445.5L1390.5 418.5L1363.5 418.5" stroke-width="4.5" stroke="rgba(27, 29, 39, 1)"></path>
            <path d="M1410.75 472.5 a6.75 6.75 0 1 0 13.5 0 a6.75 6.75 0 1 0 -13.5 0zM1356.75 418.5 a6.75 6.75 0 1 0 13.5 0 a6.75 6.75 0 1 0 -13.5 0z" fill="rgba(27, 29, 39, 1)"></path>
            <path d="M94.5 526.5L94.5 472.5L67.5 445.5" stroke-width="4.5" stroke="rgba(27, 29, 39, 1)"></path>
            <path d="M87.75 526.5 a6.75 6.75 0 1 0 13.5 0 a6.75 6.75 0 1 0 -13.5 0zM60.75 445.5 a6.75 6.75 0 1 0 13.5 0 a6.75 6.75 0 1 0 -13.5 0z" fill="rgba(27, 29, 39, 1)"></path>
            <path d="M445.5 40.5L418.5 67.5L364.5 67.5L337.5 40.5L337.5 13.5" stroke-width="4.5" stroke="rgba(27, 29, 39, 1)"></path>
            <path d="M438.75 40.5 a6.75 6.75 0 1 0 13.5 0 a6.75 6.75 0 1 0 -13.5 0zM330.75 13.5 a6.75 6.75 0 1 0 13.5 0 a6.75 6.75 0 1 0 -13.5 0z" fill="rgba(27, 29, 39, 1)"></path>
            <path d="M1363.5 40.5L1444.5 40.5" stroke-width="4.5" stroke="rgba(27, 29, 39, 1)"></path>
            <path d="M1356.75 40.5 a6.75 6.75 0 1 0 13.5 0 a6.75 6.75 0 1 0 -13.5 0zM1437.75 40.5 a6.75 6.75 0 1 0 13.5 0 a6.75 6.75 0 1 0 -13.5 0z" fill="rgba(27, 29, 39, 1)"></path>
            <path d="M931.5 364.5L931.5 391.5L958.5 418.5L985.5 418.5" stroke-width="4.5" stroke="rgba(27, 29, 39, 1)"></path>
            <path d="M924.75 364.5 a6.75 6.75 0 1 0 13.5 0 a6.75 6.75 0 1 0 -13.5 0zM978.75 418.5 a6.75 6.75 0 1 0 13.5 0 a6.75 6.75 0 1 0 -13.5 0z" fill="rgba(27, 29, 39, 1)"></path>
            <path d="M1120.5 94.5L1147.5 67.5L1174.5 67.5" stroke-width="4.5" stroke="rgba(27, 29, 39, 1)"></path>
            <path d="M1113.75 94.5 a6.75 6.75 0 1 0 13.5 0 a6.75 6.75 0 1 0 -13.5 0zM1167.75 67.5 a6.75 6.75 0 1 0 13.5 0 a6.75 6.75 0 1 0 -13.5 0z" fill="rgba(27, 29, 39, 1)"></path>
            <path d="M472.5 67.5L472.5 121.5" stroke-width="4.5" stroke="rgba(27, 29, 39, 1)"></path>
            <path d="M465.75 67.5 a6.75 6.75 0 1 0 13.5 0 a6.75 6.75 0 1 0 -13.5 0zM465.75 121.5 a6.75 6.75 0 1 0 13.5 0 a6.75 6.75 0 1 0 -13.5 0z" fill="rgba(27, 29, 39, 1)"></path>
            <path d="M499.5 40.5L499.5 121.5" stroke-width="4.5" stroke="rgba(27, 29, 39, 1)"></path>
            <path d="M492.75 40.5 a6.75 6.75 0 1 0 13.5 0 a6.75 6.75 0 1 0 -13.5 0zM492.75 121.5 a6.75 6.75 0 1 0 13.5 0 a6.75 6.75 0 1 0 -13.5 0z" fill="rgba(27, 29, 39, 1)"></path>
            <path d="M580.5 40.5L553.5 40.5L526.5 13.5" stroke-width="4.5" stroke="rgba(27, 29, 39, 1)"></path>
            <path d="M573.75 40.5 a6.75 6.75 0 1 0 13.5 0 a6.75 6.75 0 1 0 -13.5 0zM519.75 13.5 a6.75 6.75 0 1 0 13.5 0 a6.75 6.75 0 1 0 -13.5 0z" fill="rgba(27, 29, 39, 1)"></path>
            <path d="M310.5 364.5L391.5 364.5" stroke-width="4.5" stroke="rgba(27, 29, 39, 1)"></path>
            <path d="M303.75 364.5 a6.75 6.75 0 1 0 13.5 0 a6.75 6.75 0 1 0 -13.5 0zM384.75 364.5 a6.75 6.75 0 1 0 13.5 0 a6.75 6.75 0 1 0 -13.5 0z" fill="rgba(27, 29, 39, 1)"></path>
            <path d="M1147.5 256.5L1201.5 256.5" stroke-width="4.5" stroke="rgba(27, 29, 39, 1)"></path>
            <path d="M1140.75 256.5 a6.75 6.75 0 1 0 13.5 0 a6.75 6.75 0 1 0 -13.5 0zM1194.75 256.5 a6.75 6.75 0 1 0 13.5 0 a6.75 6.75 0 1 0 -13.5 0z" fill="rgba(27, 29, 39, 1)"></path>
            <path d="M985.5 364.5L958.5 337.5L877.5 337.5" stroke-width="4.5" stroke="rgba(27, 29, 39, 1)"></path>
            <path d="M978.75 364.5 a6.75 6.75 0 1 0 13.5 0 a6.75 6.75 0 1 0 -13.5 0zM870.75 337.5 a6.75 6.75 0 1 0 13.5 0 a6.75 6.75 0 1 0 -13.5 0z" fill="rgba(27, 29, 39, 1)"></path>
            <path d="M364.5 472.5L337.5 472.5L310.5 445.5" stroke-width="4.5" stroke="rgba(27, 29, 39, 1)"></path>
            <path d="M357.75 472.5 a6.75 6.75 0 1 0 13.5 0 a6.75 6.75 0 1 0 -13.5 0zM303.75 445.5 a6.75 6.75 0 1 0 13.5 0 a6.75 6.75 0 1 0 -13.5 0z" fill="rgba(27, 29, 39, 1)"></path>
            <path d="M121.5 337.5L94.5 310.5L67.5 310.5" stroke-width="4.5" stroke="rgba(27, 29, 39, 1)"></path>
            <path d="M114.75 337.5 a6.75 6.75 0 1 0 13.5 0 a6.75 6.75 0 1 0 -13.5 0zM60.75 310.5 a6.75 6.75 0 1 0 13.5 0 a6.75 6.75 0 1 0 -13.5 0z" fill="rgba(27, 29, 39, 1)"></path>
            <path d="M1012.5 94.5L985.5 67.5L904.5 67.5L877.5 94.5" stroke-width="4.5" stroke="rgba(27, 29, 39, 1)"></path>
            <path d="M1005.75 94.5 a6.75 6.75 0 1 0 13.5 0 a6.75 6.75 0 1 0 -13.5 0zM870.75 94.5 a6.75 6.75 0 1 0 13.5 0 a6.75 6.75 0 1 0 -13.5 0z" fill="rgba(27, 29, 39, 1)"></path>
            <path d="M1309.5 202.5L1174.5 202.5" stroke-width="4.5" stroke="rgba(27, 29, 39, 1)"></path>
            <path d="M1302.75 202.5 a6.75 6.75 0 1 0 13.5 0 a6.75 6.75 0 1 0 -13.5 0zM1167.75 202.5 a6.75 6.75 0 1 0 13.5 0 a6.75 6.75 0 1 0 -13.5 0z" fill="rgba(27, 29, 39, 1)"></path>
            <path d="M148.5 148.5L148.5 67.5" stroke-width="4.5" stroke="rgba(27, 29, 39, 1)"></path>
            <path d="M141.75 148.5 a6.75 6.75 0 1 0 13.5 0 a6.75 6.75 0 1 0 -13.5 0zM141.75 67.5 a6.75 6.75 0 1 0 13.5 0 a6.75 6.75 0 1 0 -13.5 0z" fill="rgba(27, 29, 39, 1)"></path>
            <path d="M715.5 337.5L742.5 310.5L742.5 283.5L715.5 256.5" stroke-width="4.5" stroke="rgba(27, 29, 39, 1)"></path>
            <path d="M708.75 337.5 a6.75 6.75 0 1 0 13.5 0 a6.75 6.75 0 1 0 -13.5 0zM708.75 256.5 a6.75 6.75 0 1 0 13.5 0 a6.75 6.75 0 1 0 -13.5 0z" fill="rgba(27, 29, 39, 1)"></path>
            <path d="M1093.5 94.5L1066.5 121.5L1039.5 121.5" stroke-width="4.5" stroke="rgba(27, 29, 39, 1)"></path>
            <path d="M1086.75 94.5 a6.75 6.75 0 1 0 13.5 0 a6.75 6.75 0 1 0 -13.5 0zM1032.75 121.5 a6.75 6.75 0 1 0 13.5 0 a6.75 6.75 0 1 0 -13.5 0z" fill="rgba(27, 29, 39, 1)"></path>
            <path d="M256.5 526.5L283.5 526.5L310.5 553.5" stroke-width="4.5" stroke="rgba(27, 29, 39, 1)"></path>
            <path d="M249.75 526.5 a6.75 6.75 0 1 0 13.5 0 a6.75 6.75 0 1 0 -13.5 0zM303.75 553.5 a6.75 6.75 0 1 0 13.5 0 a6.75 6.75 0 1 0 -13.5 0z" fill="rgba(27, 29, 39, 1)"></path>
            <path d="M553.5 472.5L499.5 472.5" stroke-width="4.5" stroke="rgba(27, 29, 39, 1)"></path>
            <path d="M546.75 472.5 a6.75 6.75 0 1 0 13.5 0 a6.75 6.75 0 1 0 -13.5 0zM492.75 472.5 a6.75 6.75 0 1 0 13.5 0 a6.75 6.75 0 1 0 -13.5 0z" fill="rgba(27, 29, 39, 1)"></path>
            <path d="M1309.5 526.5L1255.5 526.5" stroke-width="4.5" stroke="rgba(27, 29, 39, 1)"></path>
            <path d="M1302.75 526.5 a6.75 6.75 0 1 0 13.5 0 a6.75 6.75 0 1 0 -13.5 0zM1248.75 526.5 a6.75 6.75 0 1 0 13.5 0 a6.75 6.75 0 1 0 -13.5 0z" fill="rgba(27, 29, 39, 1)"></path>
        </g>
    </g>
    <defs>
        <mask id="SvgjsMask1140">
            <rect width="1440" height="560" fill="#ffffff"></rect>
        </mask>
        <mask id="SvgjsMask1141">
            <rect width="1440" height="560" fill="white"></rect>
            <path d="M712.12 40.5 a3.38 3.38 0 1 0 6.76 0 a3.38 3.38 0 1 0 -6.76 0zM1225.12 67.5 a3.38 3.38 0 1 0 6.76 0 a3.38 3.38 0 1 0 -6.76 0z" fill="black"></path>
            <path d="M1306.12 499.5 a3.38 3.38 0 1 0 6.76 0 a3.38 3.38 0 1 0 -6.76 0zM793.12 499.5 a3.38 3.38 0 1 0 6.76 0 a3.38 3.38 0 1 0 -6.76 0z" fill="black"></path>
            <path d="M955.12 364.5 a3.38 3.38 0 1 0 6.76 0 a3.38 3.38 0 1 0 -6.76 0zM1441.12 256.5 a3.38 3.38 0 1 0 6.76 0 a3.38 3.38 0 1 0 -6.76 0z" fill="black"></path>
            <path d="M442.12 364.5 a3.38 3.38 0 1 0 6.76 0 a3.38 3.38 0 1 0 -6.76 0zM442.12 553.5 a3.38 3.38 0 1 0 6.76 0 a3.38 3.38 0 1 0 -6.76 0z" fill="black"></path>
            <path d="M658.12 310.5 a3.38 3.38 0 1 0 6.76 0 a3.38 3.38 0 1 0 -6.76 0zM145.12 310.5 a3.38 3.38 0 1 0 6.76 0 a3.38 3.38 0 1 0 -6.76 0z" fill="black"></path>
            <path d="M145.12 418.5 a3.38 3.38 0 1 0 6.76 0 a3.38 3.38 0 1 0 -6.76 0zM199.12 67.5 a3.38 3.38 0 1 0 6.76 0 a3.38 3.38 0 1 0 -6.76 0z" fill="black"></path>
            <path d="M1441.12 67.5 a3.38 3.38 0 1 0 6.76 0 a3.38 3.38 0 1 0 -6.76 0zM1198.12 13.5 a3.38 3.38 0 1 0 6.76 0 a3.38 3.38 0 1 0 -6.76 0z" fill="black"></path>
            <path d="M1387.12 175.5 a3.38 3.38 0 1 0 6.76 0 a3.38 3.38 0 1 0 -6.76 0zM1441.12 94.5 a3.38 3.38 0 1 0 6.76 0 a3.38 3.38 0 1 0 -6.76 0z" fill="black"></path>
            <path d="M226.12 445.5 a3.38 3.38 0 1 0 6.76 0 a3.38 3.38 0 1 0 -6.76 0zM226.12 553.5 a3.38 3.38 0 1 0 6.76 0 a3.38 3.38 0 1 0 -6.76 0z" fill="black"></path>
            <path d="M1036.12 364.5 a3.38 3.38 0 1 0 6.76 0 a3.38 3.38 0 1 0 -6.76 0zM523.12 94.5 a3.38 3.38 0 1 0 6.76 0 a3.38 3.38 0 1 0 -6.76 0z" fill="black"></path>
            <path d="M658.12 94.5 a3.38 3.38 0 1 0 6.76 0 a3.38 3.38 0 1 0 -6.76 0zM658.12 13.5 a3.38 3.38 0 1 0 6.76 0 a3.38 3.38 0 1 0 -6.76 0z" fill="black"></path>
            <path d="M118.12 148.5 a3.38 3.38 0 1 0 6.76 0 a3.38 3.38 0 1 0 -6.76 0zM118.12 40.5 a3.38 3.38 0 1 0 6.76 0 a3.38 3.38 0 1 0 -6.76 0z" fill="black"></path>
            <path d="M577.12 445.5 a3.38 3.38 0 1 0 6.76 0 a3.38 3.38 0 1 0 -6.76 0zM469.12 553.5 a3.38 3.38 0 1 0 6.76 0 a3.38 3.38 0 1 0 -6.76 0z" fill="black"></path>
            <path d="M874.12 121.5 a3.38 3.38 0 1 0 6.76 0 a3.38 3.38 0 1 0 -6.76 0zM874.12 283.5 a3.38 3.38 0 1 0 6.76 0 a3.38 3.38 0 1 0 -6.76 0z" fill="black"></path>
            <path d="M334.12 526.5 a3.38 3.38 0 1 0 6.76 0 a3.38 3.38 0 1 0 -6.76 0zM37.12 283.5 a3.38 3.38 0 1 0 6.76 0 a3.38 3.38 0 1 0 -6.76 0z" fill="black"></path>
            <path d="M145.12 256.5 a3.38 3.38 0 1 0 6.76 0 a3.38 3.38 0 1 0 -6.76 0zM37.12 256.5 a3.38 3.38 0 1 0 6.76 0 a3.38 3.38 0 1 0 -6.76 0z" fill="black"></path>
            <path d="M1117.12 121.5 a3.38 3.38 0 1 0 6.76 0 a3.38 3.38 0 1 0 -6.76 0zM901.12 148.5 a3.38 3.38 0 1 0 6.76 0 a3.38 3.38 0 1 0 -6.76 0z" fill="black"></path>
            <path d="M361.12 418.5 a3.38 3.38 0 1 0 6.76 0 a3.38 3.38 0 1 0 -6.76 0zM415.12 418.5 a3.38 3.38 0 1 0 6.76 0 a3.38 3.38 0 1 0 -6.76 0z" fill="black"></path>
            <path d="M1225.12 553.5 a3.38 3.38 0 1 0 6.76 0 a3.38 3.38 0 1 0 -6.76 0zM1441.12 553.5 a3.38 3.38 0 1 0 6.76 0 a3.38 3.38 0 1 0 -6.76 0z" fill="black"></path>
            <path d="M469.12 202.5 a3.38 3.38 0 1 0 6.76 0 a3.38 3.38 0 1 0 -6.76 0zM982.12 472.5 a3.38 3.38 0 1 0 6.76 0 a3.38 3.38 0 1 0 -6.76 0z" fill="black"></path>
            <path d="M955.12 499.5 a3.38 3.38 0 1 0 6.76 0 a3.38 3.38 0 1 0 -6.76 0zM469.12 283.5 a3.38 3.38 0 1 0 6.76 0 a3.38 3.38 0 1 0 -6.76 0z" fill="black"></path>
            <path d="M928.12 499.5 a3.38 3.38 0 1 0 6.76 0 a3.38 3.38 0 1 0 -6.76 0zM1090.12 526.5 a3.38 3.38 0 1 0 6.76 0 a3.38 3.38 0 1 0 -6.76 0z" fill="black"></path>
            <path d="M901.12 472.5 a3.38 3.38 0 1 0 6.76 0 a3.38 3.38 0 1 0 -6.76 0zM604.12 472.5 a3.38 3.38 0 1 0 6.76 0 a3.38 3.38 0 1 0 -6.76 0z" fill="black"></path>
            <path d="M10.12 445.5 a3.38 3.38 0 1 0 6.76 0 a3.38 3.38 0 1 0 -6.76 0zM145.12 553.5 a3.38 3.38 0 1 0 6.76 0 a3.38 3.38 0 1 0 -6.76 0z" fill="black"></path>
            <path d="M37.12 526.5 a3.38 3.38 0 1 0 6.76 0 a3.38 3.38 0 1 0 -6.76 0zM118.12 553.5 a3.38 3.38 0 1 0 6.76 0 a3.38 3.38 0 1 0 -6.76 0z" fill="black"></path>
            <path d="M307.12 472.5 a3.38 3.38 0 1 0 6.76 0 a3.38 3.38 0 1 0 -6.76 0zM172.12 337.5 a3.38 3.38 0 1 0 6.76 0 a3.38 3.38 0 1 0 -6.76 0z" fill="black"></path>
            <path d="M334.12 256.5 a3.38 3.38 0 1 0 6.76 0 a3.38 3.38 0 1 0 -6.76 0zM118.12 283.5 a3.38 3.38 0 1 0 6.76 0 a3.38 3.38 0 1 0 -6.76 0z" fill="black"></path>
            <path d="M685.12 337.5 a3.38 3.38 0 1 0 6.76 0 a3.38 3.38 0 1 0 -6.76 0zM199.12 337.5 a3.38 3.38 0 1 0 6.76 0 a3.38 3.38 0 1 0 -6.76 0z" fill="black"></path>
            <path d="M145.12 364.5 a3.38 3.38 0 1 0 6.76 0 a3.38 3.38 0 1 0 -6.76 0zM172.12 553.5 a3.38 3.38 0 1 0 6.76 0 a3.38 3.38 0 1 0 -6.76 0z" fill="black"></path>
            <path d="M226.12 175.5 a3.38 3.38 0 1 0 6.76 0 a3.38 3.38 0 1 0 -6.76 0zM37.12 229.5 a3.38 3.38 0 1 0 6.76 0 a3.38 3.38 0 1 0 -6.76 0z" fill="black"></path>
            <path d="M739.12 148.5 a3.38 3.38 0 1 0 6.76 0 a3.38 3.38 0 1 0 -6.76 0zM820.12 256.5 a3.38 3.38 0 1 0 6.76 0 a3.38 3.38 0 1 0 -6.76 0z" fill="black"></path>
            <path d="M523.12 445.5 a3.38 3.38 0 1 0 6.76 0 a3.38 3.38 0 1 0 -6.76 0zM469.12 445.5 a3.38 3.38 0 1 0 6.76 0 a3.38 3.38 0 1 0 -6.76 0z" fill="black"></path>
            <path d="M226.12 121.5 a3.38 3.38 0 1 0 6.76 0 a3.38 3.38 0 1 0 -6.76 0zM145.12 40.5 a3.38 3.38 0 1 0 6.76 0 a3.38 3.38 0 1 0 -6.76 0z" fill="black"></path>
            <path d="M1144.12 202.5 a3.38 3.38 0 1 0 6.76 0 a3.38 3.38 0 1 0 -6.76 0zM1306.12 391.5 a3.38 3.38 0 1 0 6.76 0 a3.38 3.38 0 1 0 -6.76 0z" fill="black"></path>
            <path d="M1144.12 472.5 a3.38 3.38 0 1 0 6.76 0 a3.38 3.38 0 1 0 -6.76 0zM1360.12 175.5 a3.38 3.38 0 1 0 6.76 0 a3.38 3.38 0 1 0 -6.76 0z" fill="black"></path>
            <path d="M1414.12 175.5 a3.38 3.38 0 1 0 6.76 0 a3.38 3.38 0 1 0 -6.76 0zM1117.12 445.5 a3.38 3.38 0 1 0 6.76 0 a3.38 3.38 0 1 0 -6.76 0z" fill="black"></path>
            <path d="M442.12 148.5 a3.38 3.38 0 1 0 6.76 0 a3.38 3.38 0 1 0 -6.76 0zM577.12 148.5 a3.38 3.38 0 1 0 6.76 0 a3.38 3.38 0 1 0 -6.76 0z" fill="black"></path>
            <path d="M442.12 202.5 a3.38 3.38 0 1 0 6.76 0 a3.38 3.38 0 1 0 -6.76 0zM64.12 202.5 a3.38 3.38 0 1 0 6.76 0 a3.38 3.38 0 1 0 -6.76 0z" fill="black"></path>
            <path d="M10.12 40.5 a3.38 3.38 0 1 0 6.76 0 a3.38 3.38 0 1 0 -6.76 0zM64.12 13.5 a3.38 3.38 0 1 0 6.76 0 a3.38 3.38 0 1 0 -6.76 0z" fill="black"></path>
            <path d="M415.12 175.5 a3.38 3.38 0 1 0 6.76 0 a3.38 3.38 0 1 0 -6.76 0zM280.12 13.5 a3.38 3.38 0 1 0 6.76 0 a3.38 3.38 0 1 0 -6.76 0z" fill="black"></path>
            <path d="M766.12 148.5 a3.38 3.38 0 1 0 6.76 0 a3.38 3.38 0 1 0 -6.76 0zM766.12 67.5 a3.38 3.38 0 1 0 6.76 0 a3.38 3.38 0 1 0 -6.76 0z" fill="black"></path>
            <path d="M1441.12 418.5 a3.38 3.38 0 1 0 6.76 0 a3.38 3.38 0 1 0 -6.76 0zM1387.12 364.5 a3.38 3.38 0 1 0 6.76 0 a3.38 3.38 0 1 0 -6.76 0z" fill="black"></path>
            <path d="M712.12 310.5 a3.38 3.38 0 1 0 6.76 0 a3.38 3.38 0 1 0 -6.76 0zM604.12 229.5 a3.38 3.38 0 1 0 6.76 0 a3.38 3.38 0 1 0 -6.76 0z" fill="black"></path>
            <path d="M793.12 391.5 a3.38 3.38 0 1 0 6.76 0 a3.38 3.38 0 1 0 -6.76 0zM469.12 391.5 a3.38 3.38 0 1 0 6.76 0 a3.38 3.38 0 1 0 -6.76 0z" fill="black"></path>
            <path d="M874.12 418.5 a3.38 3.38 0 1 0 6.76 0 a3.38 3.38 0 1 0 -6.76 0zM469.12 418.5 a3.38 3.38 0 1 0 6.76 0 a3.38 3.38 0 1 0 -6.76 0z" fill="black"></path>
            <path d="M928.12 256.5 a3.38 3.38 0 1 0 6.76 0 a3.38 3.38 0 1 0 -6.76 0zM1414.12 94.5 a3.38 3.38 0 1 0 6.76 0 a3.38 3.38 0 1 0 -6.76 0z" fill="black"></path>
            <path d="M955.12 256.5 a3.38 3.38 0 1 0 6.76 0 a3.38 3.38 0 1 0 -6.76 0zM901.12 283.5 a3.38 3.38 0 1 0 6.76 0 a3.38 3.38 0 1 0 -6.76 0z" fill="black"></path>
            <path d="M1009.12 40.5 a3.38 3.38 0 1 0 6.76 0 a3.38 3.38 0 1 0 -6.76 0zM901.12 40.5 a3.38 3.38 0 1 0 6.76 0 a3.38 3.38 0 1 0 -6.76 0z" fill="black"></path>
            <path d="M793.12 94.5 a3.38 3.38 0 1 0 6.76 0 a3.38 3.38 0 1 0 -6.76 0zM820.12 229.5 a3.38 3.38 0 1 0 6.76 0 a3.38 3.38 0 1 0 -6.76 0z" fill="black"></path>
            <path d="M658.12 364.5 a3.38 3.38 0 1 0 6.76 0 a3.38 3.38 0 1 0 -6.76 0zM793.12 337.5 a3.38 3.38 0 1 0 6.76 0 a3.38 3.38 0 1 0 -6.76 0z" fill="black"></path>
            <path d="M766.12 499.5 a3.38 3.38 0 1 0 6.76 0 a3.38 3.38 0 1 0 -6.76 0zM820.12 553.5 a3.38 3.38 0 1 0 6.76 0 a3.38 3.38 0 1 0 -6.76 0z" fill="black"></path>
            <path d="M469.12 526.5 a3.38 3.38 0 1 0 6.76 0 a3.38 3.38 0 1 0 -6.76 0zM550.12 526.5 a3.38 3.38 0 1 0 6.76 0 a3.38 3.38 0 1 0 -6.76 0z" fill="black"></path>
            <path d="M307.12 391.5 a3.38 3.38 0 1 0 6.76 0 a3.38 3.38 0 1 0 -6.76 0zM226.12 364.5 a3.38 3.38 0 1 0 6.76 0 a3.38 3.38 0 1 0 -6.76 0z" fill="black"></path>
            <path d="M685.12 553.5 a3.38 3.38 0 1 0 6.76 0 a3.38 3.38 0 1 0 -6.76 0zM739.12 499.5 a3.38 3.38 0 1 0 6.76 0 a3.38 3.38 0 1 0 -6.76 0z" fill="black"></path>
            <path d="M604.12 553.5 a3.38 3.38 0 1 0 6.76 0 a3.38 3.38 0 1 0 -6.76 0zM604.12 499.5 a3.38 3.38 0 1 0 6.76 0 a3.38 3.38 0 1 0 -6.76 0z" fill="black"></path>
            <path d="M64.12 67.5 a3.38 3.38 0 1 0 6.76 0 a3.38 3.38 0 1 0 -6.76 0zM91.12 148.5 a3.38 3.38 0 1 0 6.76 0 a3.38 3.38 0 1 0 -6.76 0z" fill="black"></path>
            <path d="M280.12 148.5 a3.38 3.38 0 1 0 6.76 0 a3.38 3.38 0 1 0 -6.76 0zM226.12 13.5 a3.38 3.38 0 1 0 6.76 0 a3.38 3.38 0 1 0 -6.76 0z" fill="black"></path>
            <path d="M1144.12 283.5 a3.38 3.38 0 1 0 6.76 0 a3.38 3.38 0 1 0 -6.76 0zM1414.12 202.5 a3.38 3.38 0 1 0 6.76 0 a3.38 3.38 0 1 0 -6.76 0z" fill="black"></path>
            <path d="M226.12 229.5 a3.38 3.38 0 1 0 6.76 0 a3.38 3.38 0 1 0 -6.76 0zM145.12 202.5 a3.38 3.38 0 1 0 6.76 0 a3.38 3.38 0 1 0 -6.76 0z" fill="black"></path>
            <path d="M550.12 67.5 a3.38 3.38 0 1 0 6.76 0 a3.38 3.38 0 1 0 -6.76 0zM496.12 13.5 a3.38 3.38 0 1 0 6.76 0 a3.38 3.38 0 1 0 -6.76 0z" fill="black"></path>
            <path d="M901.12 256.5 a3.38 3.38 0 1 0 6.76 0 a3.38 3.38 0 1 0 -6.76 0zM901.12 175.5 a3.38 3.38 0 1 0 6.76 0 a3.38 3.38 0 1 0 -6.76 0z" fill="black"></path>
            <path d="M172.12 121.5 a3.38 3.38 0 1 0 6.76 0 a3.38 3.38 0 1 0 -6.76 0zM388.12 175.5 a3.38 3.38 0 1 0 6.76 0 a3.38 3.38 0 1 0 -6.76 0z" fill="black"></path>
            <path d="M1252.12 148.5 a3.38 3.38 0 1 0 6.76 0 a3.38 3.38 0 1 0 -6.76 0zM1117.12 148.5 a3.38 3.38 0 1 0 6.76 0 a3.38 3.38 0 1 0 -6.76 0z" fill="black"></path>
            <path d="M1009.12 121.5 a3.38 3.38 0 1 0 6.76 0 a3.38 3.38 0 1 0 -6.76 0zM1279.12 148.5 a3.38 3.38 0 1 0 6.76 0 a3.38 3.38 0 1 0 -6.76 0z" fill="black"></path>
            <path d="M1333.12 526.5 a3.38 3.38 0 1 0 6.76 0 a3.38 3.38 0 1 0 -6.76 0zM1441.12 526.5 a3.38 3.38 0 1 0 6.76 0 a3.38 3.38 0 1 0 -6.76 0z" fill="black"></path>
            <path d="M1279.12 310.5 a3.38 3.38 0 1 0 6.76 0 a3.38 3.38 0 1 0 -6.76 0zM1117.12 418.5 a3.38 3.38 0 1 0 6.76 0 a3.38 3.38 0 1 0 -6.76 0z" fill="black"></path>
            <path d="M1252.12 40.5 a3.38 3.38 0 1 0 6.76 0 a3.38 3.38 0 1 0 -6.76 0zM1441.12 13.5 a3.38 3.38 0 1 0 6.76 0 a3.38 3.38 0 1 0 -6.76 0z" fill="black"></path>
            <path d="M442.12 283.5 a3.38 3.38 0 1 0 6.76 0 a3.38 3.38 0 1 0 -6.76 0zM469.12 229.5 a3.38 3.38 0 1 0 6.76 0 a3.38 3.38 0 1 0 -6.76 0z" fill="black"></path>
            <path d="M1036.12 310.5 a3.38 3.38 0 1 0 6.76 0 a3.38 3.38 0 1 0 -6.76 0zM1063.12 229.5 a3.38 3.38 0 1 0 6.76 0 a3.38 3.38 0 1 0 -6.76 0z" fill="black"></path>
            <path d="M1414.12 229.5 a3.38 3.38 0 1 0 6.76 0 a3.38 3.38 0 1 0 -6.76 0zM1279.12 283.5 a3.38 3.38 0 1 0 6.76 0 a3.38 3.38 0 1 0 -6.76 0z" fill="black"></path>
            <path d="M712.12 67.5 a3.38 3.38 0 1 0 6.76 0 a3.38 3.38 0 1 0 -6.76 0zM712.12 148.5 a3.38 3.38 0 1 0 6.76 0 a3.38 3.38 0 1 0 -6.76 0z" fill="black"></path>
            <path d="M64.12 418.5 a3.38 3.38 0 1 0 6.76 0 a3.38 3.38 0 1 0 -6.76 0zM118.12 526.5 a3.38 3.38 0 1 0 6.76 0 a3.38 3.38 0 1 0 -6.76 0z" fill="black"></path>
            <path d="M1441.12 310.5 a3.38 3.38 0 1 0 6.76 0 a3.38 3.38 0 1 0 -6.76 0zM1441.12 391.5 a3.38 3.38 0 1 0 6.76 0 a3.38 3.38 0 1 0 -6.76 0z" fill="black"></path>
            <path d="M1036.12 472.5 a3.38 3.38 0 1 0 6.76 0 a3.38 3.38 0 1 0 -6.76 0zM982.12 499.5 a3.38 3.38 0 1 0 6.76 0 a3.38 3.38 0 1 0 -6.76 0z" fill="black"></path>
            <path d="M1171.12 94.5 a3.38 3.38 0 1 0 6.76 0 a3.38 3.38 0 1 0 -6.76 0zM1225.12 121.5 a3.38 3.38 0 1 0 6.76 0 a3.38 3.38 0 1 0 -6.76 0z" fill="black"></path>
            <path d="M1360.12 121.5 a3.38 3.38 0 1 0 6.76 0 a3.38 3.38 0 1 0 -6.76 0zM1414.12 121.5 a3.38 3.38 0 1 0 6.76 0 a3.38 3.38 0 1 0 -6.76 0z" fill="black"></path>
            <path d="M1171.12 310.5 a3.38 3.38 0 1 0 6.76 0 a3.38 3.38 0 1 0 -6.76 0zM1117.12 364.5 a3.38 3.38 0 1 0 6.76 0 a3.38 3.38 0 1 0 -6.76 0z" fill="black"></path>
            <path d="M739.12 418.5 a3.38 3.38 0 1 0 6.76 0 a3.38 3.38 0 1 0 -6.76 0zM658.12 418.5 a3.38 3.38 0 1 0 6.76 0 a3.38 3.38 0 1 0 -6.76 0z" fill="black"></path>
            <path d="M1225.12 310.5 a3.38 3.38 0 1 0 6.76 0 a3.38 3.38 0 1 0 -6.76 0zM1333.12 310.5 a3.38 3.38 0 1 0 6.76 0 a3.38 3.38 0 1 0 -6.76 0z" fill="black"></path>
            <path d="M550.12 364.5 a3.38 3.38 0 1 0 6.76 0 a3.38 3.38 0 1 0 -6.76 0zM469.12 364.5 a3.38 3.38 0 1 0 6.76 0 a3.38 3.38 0 1 0 -6.76 0z" fill="black"></path>
            <path d="M361.12 229.5 a3.38 3.38 0 1 0 6.76 0 a3.38 3.38 0 1 0 -6.76 0zM253.12 256.5 a3.38 3.38 0 1 0 6.76 0 a3.38 3.38 0 1 0 -6.76 0z" fill="black"></path>
            <path d="M10.12 553.5 a3.38 3.38 0 1 0 6.76 0 a3.38 3.38 0 1 0 -6.76 0zM10.12 499.5 a3.38 3.38 0 1 0 6.76 0 a3.38 3.38 0 1 0 -6.76 0z" fill="black"></path>
            <path d="M1252.12 364.5 a3.38 3.38 0 1 0 6.76 0 a3.38 3.38 0 1 0 -6.76 0zM1144.12 418.5 a3.38 3.38 0 1 0 6.76 0 a3.38 3.38 0 1 0 -6.76 0z" fill="black"></path>
            <path d="M523.12 148.5 a3.38 3.38 0 1 0 6.76 0 a3.38 3.38 0 1 0 -6.76 0zM307.12 13.5 a3.38 3.38 0 1 0 6.76 0 a3.38 3.38 0 1 0 -6.76 0z" fill="black"></path>
            <path d="M334.12 553.5 a3.38 3.38 0 1 0 6.76 0 a3.38 3.38 0 1 0 -6.76 0zM415.12 553.5 a3.38 3.38 0 1 0 6.76 0 a3.38 3.38 0 1 0 -6.76 0z" fill="black"></path>
            <path d="M1414.12 472.5 a3.38 3.38 0 1 0 6.76 0 a3.38 3.38 0 1 0 -6.76 0zM1360.12 418.5 a3.38 3.38 0 1 0 6.76 0 a3.38 3.38 0 1 0 -6.76 0z" fill="black"></path>
            <path d="M91.12 526.5 a3.38 3.38 0 1 0 6.76 0 a3.38 3.38 0 1 0 -6.76 0zM64.12 445.5 a3.38 3.38 0 1 0 6.76 0 a3.38 3.38 0 1 0 -6.76 0z" fill="black"></path>
            <path d="M442.12 40.5 a3.38 3.38 0 1 0 6.76 0 a3.38 3.38 0 1 0 -6.76 0zM334.12 13.5 a3.38 3.38 0 1 0 6.76 0 a3.38 3.38 0 1 0 -6.76 0z" fill="black"></path>
            <path d="M1360.12 40.5 a3.38 3.38 0 1 0 6.76 0 a3.38 3.38 0 1 0 -6.76 0zM1441.12 40.5 a3.38 3.38 0 1 0 6.76 0 a3.38 3.38 0 1 0 -6.76 0z" fill="black"></path>
            <path d="M928.12 364.5 a3.38 3.38 0 1 0 6.76 0 a3.38 3.38 0 1 0 -6.76 0zM982.12 418.5 a3.38 3.38 0 1 0 6.76 0 a3.38 3.38 0 1 0 -6.76 0z" fill="black"></path>
            <path d="M1117.12 94.5 a3.38 3.38 0 1 0 6.76 0 a3.38 3.38 0 1 0 -6.76 0zM1171.12 67.5 a3.38 3.38 0 1 0 6.76 0 a3.38 3.38 0 1 0 -6.76 0z" fill="black"></path>
            <path d="M469.12 67.5 a3.38 3.38 0 1 0 6.76 0 a3.38 3.38 0 1 0 -6.76 0zM469.12 121.5 a3.38 3.38 0 1 0 6.76 0 a3.38 3.38 0 1 0 -6.76 0z" fill="black"></path>
            <path d="M496.12 40.5 a3.38 3.38 0 1 0 6.76 0 a3.38 3.38 0 1 0 -6.76 0zM496.12 121.5 a3.38 3.38 0 1 0 6.76 0 a3.38 3.38 0 1 0 -6.76 0z" fill="black"></path>
            <path d="M577.12 40.5 a3.38 3.38 0 1 0 6.76 0 a3.38 3.38 0 1 0 -6.76 0zM523.12 13.5 a3.38 3.38 0 1 0 6.76 0 a3.38 3.38 0 1 0 -6.76 0z" fill="black"></path>
            <path d="M307.12 364.5 a3.38 3.38 0 1 0 6.76 0 a3.38 3.38 0 1 0 -6.76 0zM388.12 364.5 a3.38 3.38 0 1 0 6.76 0 a3.38 3.38 0 1 0 -6.76 0z" fill="black"></path>
            <path d="M1144.12 256.5 a3.38 3.38 0 1 0 6.76 0 a3.38 3.38 0 1 0 -6.76 0zM1198.12 256.5 a3.38 3.38 0 1 0 6.76 0 a3.38 3.38 0 1 0 -6.76 0z" fill="black"></path>
            <path d="M982.12 364.5 a3.38 3.38 0 1 0 6.76 0 a3.38 3.38 0 1 0 -6.76 0zM874.12 337.5 a3.38 3.38 0 1 0 6.76 0 a3.38 3.38 0 1 0 -6.76 0z" fill="black"></path>
            <path d="M361.12 472.5 a3.38 3.38 0 1 0 6.76 0 a3.38 3.38 0 1 0 -6.76 0zM307.12 445.5 a3.38 3.38 0 1 0 6.76 0 a3.38 3.38 0 1 0 -6.76 0z" fill="black"></path>
            <path d="M118.12 337.5 a3.38 3.38 0 1 0 6.76 0 a3.38 3.38 0 1 0 -6.76 0zM64.12 310.5 a3.38 3.38 0 1 0 6.76 0 a3.38 3.38 0 1 0 -6.76 0z" fill="black"></path>
            <path d="M1009.12 94.5 a3.38 3.38 0 1 0 6.76 0 a3.38 3.38 0 1 0 -6.76 0zM874.12 94.5 a3.38 3.38 0 1 0 6.76 0 a3.38 3.38 0 1 0 -6.76 0z" fill="black"></path>
            <path d="M1306.12 202.5 a3.38 3.38 0 1 0 6.76 0 a3.38 3.38 0 1 0 -6.76 0zM1171.12 202.5 a3.38 3.38 0 1 0 6.76 0 a3.38 3.38 0 1 0 -6.76 0z" fill="black"></path>
            <path d="M145.12 148.5 a3.38 3.38 0 1 0 6.76 0 a3.38 3.38 0 1 0 -6.76 0zM145.12 67.5 a3.38 3.38 0 1 0 6.76 0 a3.38 3.38 0 1 0 -6.76 0z" fill="black"></path>
            <path d="M712.12 337.5 a3.38 3.38 0 1 0 6.76 0 a3.38 3.38 0 1 0 -6.76 0zM712.12 256.5 a3.38 3.38 0 1 0 6.76 0 a3.38 3.38 0 1 0 -6.76 0z" fill="black"></path>
            <path d="M1090.12 94.5 a3.38 3.38 0 1 0 6.76 0 a3.38 3.38 0 1 0 -6.76 0zM1036.12 121.5 a3.38 3.38 0 1 0 6.76 0 a3.38 3.38 0 1 0 -6.76 0z" fill="black"></path>
            <path d="M253.12 526.5 a3.38 3.38 0 1 0 6.76 0 a3.38 3.38 0 1 0 -6.76 0zM307.12 553.5 a3.38 3.38 0 1 0 6.76 0 a3.38 3.38 0 1 0 -6.76 0z" fill="black"></path>
            <path d="M550.12 472.5 a3.38 3.38 0 1 0 6.76 0 a3.38 3.38 0 1 0 -6.76 0zM496.12 472.5 a3.38 3.38 0 1 0 6.76 0 a3.38 3.38 0 1 0 -6.76 0z" fill="black"></path>
            <path d="M1306.12 526.5 a3.38 3.38 0 1 0 6.76 0 a3.38 3.38 0 1 0 -6.76 0zM1252.12 526.5 a3.38 3.38 0 1 0 6.76 0 a3.38 3.38 0 1 0 -6.76 0z" fill="black"></path>
        </mask>
    </defs>
</svg>
